Coordinates
version=1
nRows=11
nColumns=40
inDegrees=yes

Units are S.I. units (second, meters, Newtons, ...)
Angles are in degrees.

endheader
time	pelvis_tilt	pelvis_list	pelvis_rotation	pelvis_tx	pelvis_ty	pelvis_tz	hip_flexion_r	hip_adduction_r	hip_rotation_r	knee_angle_r	knee_angle_r_beta	ankle_angle_r	subtalar_angle_r	mtp_angle_r	hip_flexion_l	hip_adduction_l	hip_rotation_l	knee_angle_l	knee_angle_l_beta	ankle_angle_l	subtalar_angle_l	mtp_angle_l	lumbar_extension	lumbar_bending	lumbar_rotation	arm_flex_r	arm_add_r	arm_rot_r	elbow_flex_r	pro_sup_r	wrist_flex_r	wrist_dev_r	arm_flex_l	arm_add_l	arm_rot_l	elbow_flex_l	pro_sup_l	wrist_flex_l	wrist_dev_l
     43.59500000	     -4.84516245	     -4.93240653	     13.76318899	      1.15871979	      0.91684384	      0.50402514	      6.73155903	      4.37011603	    -14.45191737	     19.33750949	     19.33750949	     19.10678547	     -9.47643302	     -1.30791625	     30.60182883	     -6.72822572	      5.55699516	     24.45012905	     24.45012905	      5.22481721	     -6.64786741	      3.44116981	     -8.63236507	      2.73533835	      1.13639886	     62.45386867	    -20.45584971	     -0.98122576	    105.49393165	     44.29930429	      0.00000000	      0.00000000	    -20.85431286	     -9.56850564	     22.30275123	     34.62565071	     42.58070564	      0.00000000	      0.00000000
     43.61707143	     -5.01789382	     -5.04944890	     14.03361982	      1.15910129	      0.91602689	      0.49982651	      6.50894391	      4.25549291	    -14.61644479	     19.27884223	     19.27884223	     19.26760933	     -9.56019886	     -1.31859725	     30.63496435	     -6.48616366	      5.56261690	     24.70912343	     24.70912343	      5.44908184	     -6.77494976	      2.99307442	     -8.58217742	      2.69985775	      1.16882382	     63.50049244	    -20.15624287	     -1.01077515	    106.19572837	     44.28999082	      0.00000000	      0.00000000	    -20.34635712	     -9.51608220	     22.35087709	     34.75782052	     42.60759525	      0.00000000	      0.00000000
     43.63914286	     -5.16482056	     -5.16548005	     14.24340882	      1.15977071	      0.91523901	      0.49547464	      6.25691079	      4.12888251	    -14.79033102	     19.26865455	     19.26865455	     19.45018463	     -9.51608420	     -1.25018649	     30.63703756	     -6.24363690	      5.69205740	     25.11089112	     25.11089112	      5.30582324	     -7.27354566	      1.47120601	     -8.56156806	      2.63842455	      1.30376279	     63.94240083	    -20.01259663	     -1.08552301	    107.84828370	     44.27979030	      0.00000000	      0.00000000	    -19.58531691	     -9.48861192	     22.60042248	     34.68139790	     42.71449050	      0.00000000	      0.00000000
     43.66121429	     -5.26701150	     -5.30823939	     14.35897397	      1.16053675	      0.91453485	      0.49101990	      5.98674398	      4.03215095	    -14.86184435	     19.30160051	     19.30160051	     19.56452580	     -9.55065151	     -1.23940342	     30.72605100	     -6.03644178	      5.93725582	     25.88069210	     25.88069210	      5.67330536	     -7.84245249	      1.05235556	     -8.54058602	      2.63856722	      1.36372498	     64.56708500	    -19.72784286	     -1.07571474	    108.31520739	     44.27451761	      0.00000000	      0.00000000	    -18.87035474	     -9.50576483	     22.61719464	     34.76260011	     42.74616782	      0.00000000	      0.00000000
     43.68328571	     -5.37785269	     -5.46814603	     14.39551710	      1.16139300	      0.91397049	      0.48645410	      5.71984044	      3.93247393	    -14.92821743	     19.32767382	     19.32767382	     19.61188755	     -9.48676312	     -1.19899208	     30.80310869	     -5.82725573	      6.28839641	     26.66252054	     26.66252054	      6.03434947	     -8.61738549	      0.73628878	     -8.52859056	      2.66192838	      1.39116431	     64.94624518	    -19.42776792	     -1.01456942	    108.96042107	     44.26288756	      0.00000000	      0.00000000	    -18.08890844	     -9.51919680	     22.64612740	     34.73469383	     42.78353312	      0.00000000	      0.00000000
     43.70535714	     -5.46695022	     -5.60477469	     14.31653814	      1.16240529	      0.91366181	      0.48187739	      5.40287500	      3.81131273	    -14.92590472	     19.32722975	     19.32722975	     19.60431596	     -9.33441510	     -1.15921492	     30.79299607	     -5.64370321	      6.58120322	     27.39153915	     27.39153915	      6.44249675	     -9.36414057	      0.56230047	     -8.51603839	      2.66777766	      1.49034774	     65.13619379	    -19.17706128	     -0.93305889	    109.39290321	     44.25430230	      0.00000000	      0.00000000	    -17.28101906	     -9.62205429	     22.62826389	     34.70510970	     42.81934669	      0.00000000	      0.00000000
     43.72742857	     -5.59847761	     -5.71406708	     14.14705699	      1.16344178	      0.91360901	      0.47730547	      5.10835863	      3.64458583	    -14.89614076	     19.28427617	     19.28427617	     19.49140840	     -9.15475456	     -1.10135837	     30.73408424	     -5.48083464	      6.72886278	     27.96843149	     27.96843149	      6.85034773	     -9.94062556	      0.45293097	     -8.47888364	      2.62654575	      1.59571985	     65.17881596	    -18.92008134	     -0.81760359	    109.59495148	     44.24814591	      0.00000000	      0.00000000	    -16.44946566	     -9.81279083	     22.56353660	     34.74836913	     42.85076931	      0.00000000	      0.00000000
     43.74950000	     -5.74506771	     -5.85938859	     13.89011758	      1.16446957	      0.91377180	      0.47281004	      4.84371776	      3.50723803	    -14.80957870	     19.23909474	     19.23909474	     19.31460667	     -8.89889688	     -1.04895463	     30.62230346	     -5.39188334	      6.82340526	     28.39198127	     28.39198127	      7.25706956	    -10.42809461	      0.39517159	     -8.40838698	      2.63627721	      1.69064876	     65.17151063	    -18.70150347	     -0.70779922	    109.69248849	     44.24414649	      0.00000000	      0.00000000	    -15.69074407	    -10.05192849	     22.48281401	     34.79118387	     42.87939065	      0.00000000	      0.00000000
     43.77157143	     -5.95296398	     -6.03787147	     13.59044994	      1.16549742	      0.91414933	      0.46827354	      4.70465511	      3.37059192	    -14.72849652	     19.27362709	     19.27362709	     18.98735899	     -8.73265161	     -0.95884638	     30.42148677	     -5.37417396	      6.77391278	     28.50209581	     28.50209581	      7.64919681	    -10.66632156	      0.29549615	     -8.26735784	      2.67660770	      1.57048040	     65.15542153	    -18.66613444	     -0.68658675	    109.70369755	     44.24367129	      0.00000000	      0.00000000	    -15.30890711	    -10.21613975	     22.43257312	     34.83612659	     42.89226662	      0.00000000	      0.00000000
     43.79364286	     -6.10452168	     -6.18206551	     13.14174251	      1.16640256	      0.91481297	      0.46408184	      4.41936790	      3.22945894	    -14.59544931	     19.12523351	     19.12523351	     18.70859309	     -8.21290142	     -0.92368357	     30.22992831	     -5.38608251	      6.66642258	     28.76668282	     28.76668282	      8.02113101	    -11.15664300	      0.38494954	     -8.25145766	      2.73249434	      1.93338768	     64.94327502	    -18.29887473	     -0.46408196	    109.55307072	     44.24291318	      0.00000000	      0.00000000	    -14.23282037	    -10.75421883	     22.26124813	     34.89039064	     42.93596496	      0.00000000	      0.00000000
     43.81571429	     -6.22789284	     -6.27745967	     12.72360055	      1.16733740	      0.91594508	      0.45964479	      3.99719727	      2.94089529	    -15.01710604	     18.82235577	     18.82235577	     18.30595195	     -6.82918163	     -1.19994946	     29.76692662	     -5.33175325	      6.56892461	     28.63640765	     28.63640765	      8.69094589	    -11.44386095	      1.39679047	     -8.22717777	      2.74293288	      2.25216332	     64.72162605	    -18.66428947	     -0.44125574	    108.75333853	     44.28465250	      0.00000000	      0.00000000	    -13.19681186	    -10.97767939	     22.17414427	     34.19115665	     43.02464197	      0.00000000	      0.00000000
